<svg xmlns="http://www.w3.org/2000/svg" xmlns:xlink="http://www.w3.org/1999/xlink" version="1.1" width="3162.1621621621625" height="754.0540540540542" viewBox="0 0 3162.1621621621625 754.0540540540542">
	<g transform="scale(8.108108108108109) translate(10, 10)">
		<defs id="SvgjsDefs2149"><linearGradient id="SvgjsLinearGradient2156"><stop id="SvgjsStop2157" stop-color="#2d388a" offset="0"></stop><stop id="SvgjsStop2158" stop-color="#00aeef" offset="1"></stop></linearGradient></defs>
		<g id="SvgjsG2151" featureKey="symbolFeature-0" transform="matrix(0.11704119850187264,0,0,0.11704119850187264,0,13)" fill="url(#SvgjsLinearGradient2156)">
			<defs xmlns="http://www.w3.org/2000/svg"></defs>
			<g xmlns="http://www.w3.org/2000/svg"><path class="fil0" d="M0 202l31 0c0,7 0,14 0,21 53,0 234,0 287,0 16,-29 59,-7 96,-37l173 0 -15 -11c-52,0 -167,0 -219,0l-11 -24 219 0 31 23 119 0c0,45 -90,68 -118,106l0 0c-15,26 -44,26 -59,0 -15,26 -44,26 -59,0 -15,26 -44,26 -59,0 -15,26 -44,26 -59,0 -15,26 -44,26 -59,0 -15,26 -44,26 -59,0 -15,26 -44,26 -59,0 -15,26 -44,26 -59,0 -15,26 -44,26 -59,0 -6,11 -15,17 -24,19 -2,-41 -38,-54 -38,-97zm712 102c-10,25 -48,26 -60,3 -12,22 -47,22 -59,0 -12,22 -47,22 -59,0 -12,22 -47,22 -59,0 -12,22 -47,22 -59,0 -12,22 -47,22 -59,0 -12,22 -47,22 -59,0 -12,22 -47,22 -59,0 -12,22 -47,22 -59,0 -12,22 -47,22 -59,0 -12,22 -47,22 -59,0 -11,20 -41,22 -55,5l0 -20c14,16 44,14 55,-6 12,22 47,22 59,0 12,22 47,22 59,0 12,22 47,22 59,0 12,22 47,22 59,0 12,22 47,22 59,0 12,22 47,22 59,0 12,22 47,22 59,0 12,22 47,22 59,0 12,22 47,22 59,0 12,22 47,22 59,0 12,23 50,22 60,-3l0 21zm-483 -271l5 0 0 21 19 0c0,12 0,24 0,37l-142 0 17 -21 56 0 7 -16 25 0 0 -30 4 0 0 30 9 0 0 -21zm55 -33l0 33 8 0c1,3 1,6 1,10l75 0 28 27 -99 0c2,8 4,16 6,23l113 0 48 36 -147 0 22 51 54 5c-43,21 -51,2 -84,28l-267 0 0 -11 29 0 0 -25 185 0 0 25 18 0 0 -169 5 0 0 -33 5 0zm-146 95l115 0 0 76 -153 0 3 -6 13 0c2,0 3,-1 3,-2l0 -9c0,-1 -1,-2 -3,-2l-6 0 0 -2 -10 0 2 -4 19 0 126 0 0 -2 -134 0 2 -4 21 0c2,0 3,-1 3,-3l0 -8c0,-1 -1,-3 -3,-3l-14 0 4 -8 10 0c2,0 3,-1 3,-3l0 -8c0,-1 -1,-3 -3,-3l-3 0 5 -9zm-10 57l8 0c2,0 3,1 3,2l0 9c0,1 -1,2 -3,2l-8 0c-1,0 -2,-1 -2,-2l0 -9c0,-1 1,-2 2,-2zm22 0l8 0c1,0 3,1 3,2l0 9c0,1 -2,2 -3,2l-8 0c-2,0 -3,-1 -3,-2l0 -9c0,-1 1,-2 3,-2zm0 -26l8 0c1,0 3,2 3,3l0 8c0,2 -2,3 -3,3l-8 0c-2,0 -3,-1 -3,-3l0 -8c0,-1 1,-3 3,-3zm21 26l8 0c2,0 3,1 3,2l0 9c0,1 -1,2 -3,2l-8 0c-1,0 -2,-1 -2,-2l0 -9c0,-1 1,-2 2,-2zm0 -26l8 0c2,0 3,2 3,3l0 8c0,2 -1,3 -3,3l-8 0c-1,0 -2,-1 -2,-3l0 -8c0,-1 1,-3 2,-3zm22 26l8 0c1,0 3,1 3,2l0 9c0,1 -2,2 -3,2l-8 0c-2,0 -3,-1 -3,-2l0 -9c0,-1 1,-2 3,-2zm0 -26l8 0c1,0 3,2 3,3l0 8c0,2 -2,3 -3,3l-8 0c-2,0 -3,-1 -3,-3l0 -8c0,-1 1,-3 3,-3zm21 26l8 0c2,0 3,1 3,2l0 9c0,1 -1,2 -3,2l-8 0c-1,0 -2,-1 -2,-2l0 -9c0,-1 1,-2 2,-2zm0 -26l8 0c2,0 3,2 3,3l0 8c0,2 -1,3 -3,3l-8 0c-1,0 -2,-1 -2,-3l0 -8c0,-1 1,-3 2,-3zm22 26l8 0c1,0 3,1 3,2l0 9c0,1 -2,2 -3,2l-8 0c-2,0 -3,-1 -3,-2l0 -9c0,-1 1,-2 3,-2zm0 -26l8 0c1,0 3,2 3,3l0 8c0,2 -2,3 -3,3l-8 0c-2,0 -3,-1 -3,-3l0 -8c0,-1 1,-3 3,-3zm-86 -22l8 0c1,0 3,2 3,3l0 8c0,2 -2,3 -3,3l-8 0c-2,0 -3,-1 -3,-3l0 -8c0,-1 1,-3 3,-3zm21 0l8 0c2,0 3,2 3,3l0 8c0,2 -1,3 -3,3l-8 0c-1,0 -2,-1 -2,-3l0 -8c0,-1 1,-3 2,-3zm22 0l8 0c1,0 3,2 3,3l0 8c0,2 -2,3 -3,3l-8 0c-2,0 -3,-1 -3,-3l0 -8c0,-1 1,-3 3,-3zm21 0l8 0c2,0 3,2 3,3l0 8c0,2 -1,3 -3,3l-8 0c-1,0 -2,-1 -2,-3l0 -8c0,-1 1,-3 2,-3zm22 0l8 0c1,0 3,2 3,3l0 8c0,2 -2,3 -3,3l-8 0c-2,0 -3,-1 -3,-3l0 -8c0,-1 1,-3 3,-3zm219 29l6 0c2,0 8,8 10,10 1,1 0,3 -2,3l-10 0c-2,0 -3,-1 -4,-3l-2 -7c-1,-2 0,-3 2,-3zm-20 0l8 0c1,0 3,1 4,3l2 7c1,2 0,3 -2,3l-8 0c-1,0 -3,-1 -3,-3l-3 -7c0,-2 1,-3 2,-3zm-19 0l7 0c2,0 4,1 4,3l3 7c0,2 -1,3 -2,3l-8 0c-2,0 -3,-1 -4,-3l-2 -7c-1,-2 0,-3 2,-3zm-20 0l8 0c1,0 3,1 4,3l2 7c1,2 0,3 -2,3l-8 0c-1,0 -3,-1 -4,-3l-2 -7c0,-2 0,-3 2,-3zm-19 0l7 0c2,0 4,1 4,3l3 7c0,2 -1,3 -3,3l-7 0c-2,0 -4,-1 -4,-3l-2 -7c-1,-2 0,-3 2,-3zm-20 0l8 0c1,0 3,1 4,3l2 7c1,2 0,3 -2,3l-8 0c-1,0 -3,-1 -4,-3l-2 -7c0,-2 0,-3 2,-3zm-19 0l7 0c2,0 4,1 4,3l2 7c1,2 0,3 -2,3l-7 0c-2,0 -4,-1 -4,-3l-2 -7c-1,-2 0,-3 2,-3zm49 -59l6 0c2,0 9,9 10,11 2,1 0,3 -2,3l-10 0c-1,0 -3,-2 -4,-3l-2 -8c-1,-1 0,-3 2,-3zm-20 0l8 0c2,0 3,2 4,3l2 8c1,1 0,3 -2,3l-7 0c-2,0 -4,-2 -4,-3l-3 -8c0,-1 1,-3 2,-3zm-19 0l7 0c2,0 4,2 4,3l3 8c0,1 -1,3 -2,3l-8 0c-1,0 -3,-2 -4,-3l-2 -8c-1,-1 0,-3 2,-3zm-20 0l8 0c2,0 3,2 4,3l2 8c1,1 0,3 -2,3l-7 0c-2,0 -4,-2 -4,-3l-3 -8c0,-1 1,-3 2,-3zm-19 0l7 0c2,0 4,2 4,3l3 8c0,1 -1,3 -2,3l-8 0c-1,0 -3,-2 -4,-3l-2 -8c-1,-1 0,-3 2,-3zm350 108l7 0c2,0 3,1 3,3l0 7c0,2 -1,4 -3,4l-7 0c-2,0 -3,-2 -3,-4l-1 -7c0,-2 2,-3 4,-3zm-20 0l8 0c1,0 3,1 3,3l0 7c0,2 -2,4 -3,4l-8 0c-2,0 -3,-2 -3,-4l0 -7c0,-2 1,-3 3,-3zm-20 0l8 0c2,0 3,1 3,3l0 7c0,2 -1,4 -3,4l-7 0c-2,0 -4,-2 -4,-4l0 -7c0,-2 2,-3 3,-3z" style="fill: url(#SvgjsLinearGradient2156);"></path>
			</g>
		</g>
		<g id="SvgjsG2152" featureKey="nameFeature-0" transform="matrix(0.7307538067388332,0,0,0.7307538067388332,101.59695254819671,16.541777299722185)" fill="#111111"><path d="M10.92 25.68 l-0.04 -0.08 c3 1.72 6.2 3 6.2 8 c0 3.72 -3.88 6.32 -8.16 6.32 c-1.72 0 -3.92 -0.28 -6.08 -2.32 l-0.6 0.88 l-0.32 0 l0 -4.76 l0.32 0 s1.92 4.44 6.64 4.44 c2.76 0 4.68 -1.4 4.68 -4.56 c0 -1.84 -1.84 -3.44 -4.52 -4.96 c-2.96 -1.68 -6.2 -2.88 -6.2 -6.8 c0 -3.72 3.08 -6.12 7.4 -6.12 c1.6 0 3.4 0.48 4.88 1.32 l0.48 -1 l0.32 -0.04 l0.68 4.72 l-0.32 0.04 s-1.56 -3.32 -6 -3.32 c-1.88 0 -4.68 0.88 -4.68 3.2 c0 2.48 2.68 3.52 5.32 5.04 z M44.88 39.36 l0.92 0.32 l0 0.32 l-8.96 0 l0 -0.32 l1.44 -0.56 c0.68 -0.24 1 -1 0.76 -1.68 l-2.56 -6.68 l-8.12 0 l-2.6 6.76 c-0.24 0.68 0.08 1.44 0.76 1.68 l1.24 0.48 l0 0.32 l-6.6 0 l0 -0.32 l0.32 -0.12 c1.2 -0.48 2.16 -1.44 2.64 -2.64 l8.16 -21.16 l1.88 0 l8.08 20.96 c0.48 1.2 1.44 2.16 2.64 2.64 z M29.04 29.04 l6.8 0 l-3.4 -8.76 z M57.239999999999995 16.28 c-1 0.4 -1.64 1.36 -1.64 2.44 l0 18.36 c0 1.08 0.64 2.04 1.64 2.44 l0.64 0.24 l0 0.32 l-8.08 0 l0 -0.32 l0.64 -0.24 c1 -0.4 1.64 -1.36 1.64 -2.44 l0 -18.36 c0 -1.08 -0.64 -2.04 -1.64 -2.44 l-0.64 -0.24 l0 -0.32 l8.08 0 l0 0.32 z M80.44 35.24 l0.32 0.08 l-0.68 4.72 l-18.2 0 l0 -0.32 l0.64 -0.24 c1 -0.4 1.64 -1.36 1.64 -2.44 l0 -18.36 c0 -1.08 -0.64 -2.04 -1.64 -2.44 l-0.64 -0.24 l0 -0.32 l8.08 0 l0 0.32 l-0.64 0.24 c-1 0.4 -1.64 1.36 -1.64 2.44 l0 19.56 l8.96 0 c0.72 0 1.44 -0.32 1.92 -0.88 z M92.19999999999999 16.28 c-1 0.4 -1.64 1.36 -1.64 2.44 l0 18.36 c0 1.08 0.64 2.04 1.64 2.44 l0.64 0.24 l0 0.32 l-8.08 0 l0 -0.32 l0.64 -0.24 c1 -0.4 1.64 -1.36 1.64 -2.44 l0 -18.36 c0 -1.08 -0.64 -2.04 -1.64 -2.44 l-0.64 -0.24 l0 -0.32 l8.08 0 l0 0.32 z M119.71999999999998 16.28 c-1 0.4 -1.64 1.36 -1.64 2.44 l0 18.36 c0 1.08 0.64 2.04 1.64 2.44 l0.64 0.24 l0 0.32 l-4.04 0 l-15.44 -21.48 l0 18.56 c0 1.08 0.64 2.04 1.64 2.44 l0.64 0.24 l0 0.32 l-6.32 0 l0 -0.32 l0.64 -0.24 c1 -0.4 1.64 -1.36 1.64 -2.44 l0 -18.36 c0 -1.08 -0.64 -2.04 -1.64 -2.44 l-0.64 -0.24 l0 -0.32 l6.36 0 l13.12 18.24 l0 -15.32 c0 -1.08 -0.64 -2.04 -1.64 -2.44 l-0.64 -0.24 l0 -0.32 l6.32 0 l0 0.32 z M139.23999999999998 31.96 l8.36 0.04 l0 0.32 c-1.36 0 -2.44 1.08 -2.44 2.44 l0 2.4 c-2.2 1.84 -4.96 2.84 -7.8 2.84 c-8 0 -13 -5.44 -13 -12.12 s5 -12.12 13 -12.12 c2.36 0 4.68 0.72 6.64 2 l0.56 -1.16 l0.32 -0.04 l0.28 2.08 l0 0 l0 0 l0.4 2.64 l-0.32 0.04 s-2.4 -3.8 -7.88 -3.8 c-5.72 0 -9.48 4.64 -9.48 10.36 s3.76 10.36 9.48 10.36 c1.48 0 2.96 -0.32 4.32 -0.92 l0 -2.6 c0 -1.36 -1.08 -2.44 -2.44 -2.44 l0 -0.32 z M171.28 15.760000000000002 l0 0.12 c6.84 0 8.4 2.84 8.4 6.36 c0 3.48 -1.56 6.36 -8.4 6.36 l-3.28 0 l0 8.52 c0 1.08 0.64 2.04 1.64 2.44 l0.64 0.24 l0 0.32 l-8.08 0 l0 -0.32 l0.64 -0.24 c1 -0.4 1.64 -1.36 1.64 -2.44 l0 -18.36 c0 -1.08 -0.64 -2.04 -1.64 -2.44 l-0.64 -0.24 l0 -0.32 l9.08 0 z M171.28 26.880000000000003 l0 0.04 c2.12 0 4.88 -0.6 4.88 -4.64 s-2.76 -4.64 -4.88 -4.64 l-3.28 0 l0 9.24 l3.28 0 z M203.99999999999997 39.48 l0.52 0.24 l0 0.32 l-5.64 0 s-0.56 -1.24 -2.32 -5.16 c-1.48 -3.28 -2.56 -6.32 -4.2 -6.32 l-2.88 0 l0 8.52 c0 1.08 0.64 2.04 1.64 2.44 l0.64 0.24 l0 0.32 l-8.08 0 l0 -0.32 l0.64 -0.24 c1 -0.4 1.64 -1.36 1.64 -2.44 l0 -18.36 c0 -1.08 -0.64 -2.04 -1.64 -2.44 l-0.64 -0.24 l0 -0.32 l9.08 0 c6.84 0 8.4 2.84 8.4 6.36 c0 2.68 -0.92 5 -4.4 5.96 c1.28 1.48 2.2 3.48 3.04 5.36 c0.64 1.4 1.2 2.64 1.64 3.64 c0.52 1.12 1.44 2 2.56 2.44 z M194.79999999999998 26.52 l0.04 0.04 c1.48 -0.44 2.76 -1.6 2.76 -4.36 c0 -4.04 -2.76 -4.64 -4.88 -4.64 l-3.28 0 l0 9.24 l3.28 0 c0.68 0 1.4 -0.08 2.08 -0.28 z M221.2 15.760000000000002 c6.48 0 12.6 4.24 12.6 12.16 c0 7.88 -6.12 12.12 -12.6 12.12 s-12.64 -4.24 -12.64 -12.12 c0 -7.92 6.16 -12.16 12.64 -12.16 z M221.2 38.28 c5.56 0 9.2 -4.64 9.2 -10.36 s-3.64 -10.36 -9.2 -10.36 s-9.24 4.64 -9.24 10.36 s3.68 10.36 9.24 10.36 z M259.59999999999997 15.760000000000002 l0.68 4.72 l-0.32 0.04 l-1.88 -2.12 c-0.48 -0.56 -1.2 -0.88 -1.92 -0.88 l-5.36 0 l0 19.56 c0 1.08 0.64 2.04 1.64 2.44 l0.64 0.24 l0 0.32 l-8.08 0 l0 -0.32 l0.64 -0.24 c1 -0.4 1.64 -1.36 1.64 -2.44 l0 -19.56 l-5.36 0 c-0.72 0 -1.44 0.32 -1.92 0.88 l-1.88 2.12 l-0.32 -0.04 l0.68 -4.72 l21.12 0 z M276.91999999999996 15.760000000000002 c6.48 0 12.6 4.24 12.6 12.16 c0 7.88 -6.12 12.12 -12.6 12.12 s-12.64 -4.24 -12.64 -12.12 c0 -7.92 6.16 -12.16 12.64 -12.16 z M276.91999999999996 38.28 c5.56 0 9.2 -4.64 9.2 -10.36 s-3.64 -10.36 -9.2 -10.36 s-9.24 4.64 -9.24 10.36 s3.68 10.36 9.24 10.36 z M306.52 17.48 l0.04 0.04 c-5.72 0 -9.48 4.64 -9.48 10.36 s3.76 10.36 9.48 10.36 c2.44 0 4.8 -0.88 6.68 -2.44 l1.12 1.32 c-2.2 1.84 -4.96 2.84 -7.8 2.84 c-8 0 -13 -5.44 -13 -12.12 s5 -12.12 13 -12.12 c2.36 0 4.68 0.72 6.64 2 l0.56 -1.16 l0.32 -0.04 l0.68 4.72 l-0.32 0.04 s-2.44 -3.8 -7.92 -3.8 z M331.35999999999996 15.760000000000002 c6.48 0 12.6 4.24 12.6 12.16 c0 7.88 -6.12 12.12 -12.6 12.12 s-12.64 -4.24 -12.64 -12.12 c0 -7.92 6.16 -12.16 12.64 -12.16 z M331.35999999999996 38.28 c5.56 0 9.2 -4.64 9.2 -10.36 s-3.64 -10.36 -9.2 -10.36 s-9.24 4.64 -9.24 10.36 s3.68 10.36 9.24 10.36 z M366.52 35.24 l0.32 0.08 l-0.68 4.72 l-18.2 0 l0 -0.32 l0.64 -0.24 c1 -0.4 1.64 -1.36 1.64 -2.44 l0 -18.36 c0 -1.08 -0.64 -2.04 -1.64 -2.44 l-0.64 -0.24 l0 -0.32 l8.08 0 l0 0.32 l-0.64 0.24 c-1 0.4 -1.64 1.36 -1.64 2.44 l0 19.56 l8.96 0 c0.72 0 1.44 -0.32 1.92 -0.88 z"></path></g>
	</g>
</svg>